<svg xmlns="http://www.w3.org/2000/svg" viewBox="0 0 84.58 84.58"><defs><style>.cls-1{fill:#b01657;}</style></defs><g id="Capa_2" data-name="Capa 2"><g id="arte"><path class="cls-1" d="M10.66,84.58h-.09A10.59,10.59,0,0,1,0,74C0,51.51,6.83,32.77,19.8,19.8S51.46,0,73.91,0H74A10.59,10.59,0,0,1,84.58,10.57c0,22.49-6.83,41.24-19.8,54.21S33.11,84.58,10.66,84.58ZM73.91,3.52C52.42,3.52,34.57,10,22.29,22.29S3.51,52.46,3.52,74a7.11,7.11,0,0,0,7.14,7c21.5,0,39.35-6.49,51.62-18.76S81.07,32.11,81.05,10.57a7.06,7.06,0,0,0-7-7h-.09Z"/><path class="cls-1" d="M70,45.57,66.85,44a54.47,54.47,0,0,0,2.39-5.43l3.29,1.26A59,59,0,0,1,70,45.57Z"/><path class="cls-1" d="M39.8,72.53l-1.26-3.29a52.68,52.68,0,0,0,18.78-12,49.31,49.31,0,0,0,7.79-10.16l3,1.77a52.27,52.27,0,0,1-8.35,10.88A56.26,56.26,0,0,1,39.8,72.53Z"/><rect class="cls-1" x="66.96" y="-1.83" width="3.52" height="35.38" transform="translate(8.91 53.24) rotate(-45)"/><rect class="cls-1" x="61.67" y="-1.11" width="3.52" height="44.5" transform="translate(3.63 51.05) rotate(-45)"/><rect class="cls-1" x="14.1" y="51.03" width="3.52" height="35.38" transform="translate(-43.95 31.34) rotate(-45)"/><rect class="cls-1" x="19.38" y="41.18" width="3.52" height="44.5" transform="translate(-38.66 33.53) rotate(-45)"/><rect class="cls-1" x="19.86" y="40.53" width="44.85" height="3.52" transform="translate(-17.52 42.29) rotate(-45)"/><rect class="cls-1" x="40.53" y="34.81" width="3.52" height="14.95" transform="translate(-17.52 42.29) rotate(-45)"/><rect class="cls-1" x="35.24" y="40.1" width="3.52" height="14.95" transform="translate(-22.8 40.1) rotate(-45)"/><rect class="cls-1" x="29.95" y="45.38" width="3.52" height="14.95" transform="translate(-28.09 37.91) rotate(-45)"/><rect class="cls-1" x="45.81" y="29.53" width="3.52" height="14.95" transform="translate(-12.23 44.48) rotate(-45)"/><rect class="cls-1" x="51.1" y="24.24" width="3.52" height="14.95" transform="translate(-6.94 46.67) rotate(-45)"/></g></g></svg>