<svg xmlns="http://www.w3.org/2000/svg" viewBox="0 0 117.37 108.31"><defs><style>.cls-1{fill:#119f52;}</style></defs><g id="Capa_2" data-name="Capa 2"><g id="arte"><polygon class="cls-1" points="45.88 32.6 45.88 32.6 45.88 32.6 45.88 32.6 45.88 32.6"/><rect class="cls-1" x="18.51" y="27.97"/><polygon class="cls-1" points="50.38 82.73 50.37 82.73 50.37 82.73 50.38 82.73 50.38 82.73"/><path class="cls-1" d="M51.26,82.43h0Z"/><rect class="cls-1" x="20.76" y="67.46" transform="translate(-49.29 58.83) rotate(-65.87)"/><rect class="cls-1" x="7.93" y="65.29"/><rect class="cls-1" x="23.51" y="54.22"/><polygon class="cls-1" points="14.86 47.61 14.86 47.61 14.87 47.61 14.86 47.61 14.86 47.61"/><path class="cls-1" d="M113,50.48l-34.31,53a2.46,2.46,0,0,1-.69.71,2.9,2.9,0,0,1-1.42.48,3.4,3.4,0,0,1-1.56-.28l-.35-.19L39.47,81.53l6.24,1.06h0l1.61.27a7.22,7.22,0,0,0,3-.13,6.51,6.51,0,0,0,.88-.3,6,6,0,0,0,3-2.75l0-.06.1-.22a5.64,5.64,0,0,0,.46-1.69h0L58.3,46.85,72.05,25.62a2.59,2.59,0,0,1,.69-.71,3,3,0,0,1,1.42-.48,3.4,3.4,0,0,1,1.56.28,3.24,3.24,0,0,1,.36.2l35.86,21.75h0a3.13,3.13,0,0,1,.82.7,3,3,0,0,1,.63,1.37,2.5,2.5,0,0,1-.17,1.43,2,2,0,0,1-.18.32Zm3.47-4.2a7.4,7.4,0,0,0-2.6-2.65h0L78.05,21.88a7.8,7.8,0,0,0-3.28-1.09,6.94,6.94,0,0,0-3.49.54,6,6,0,0,0-2.66,2.21L59.28,38l2.6-23.42a6,6,0,0,0-.15-2.12,6.93,6.93,0,0,0-1.49-2.82,7.66,7.66,0,0,0-4.53-2.54l-23.43-4a1.79,1.79,0,0,0-2.16,1.47,2,2,0,0,0,1.76,2.14h0l23.43,4a3.45,3.45,0,0,1,.79.24,3.23,3.23,0,0,1,1.43,1.22,3.43,3.43,0,0,1,.36.84,2.7,2.7,0,0,1,.06.9L54.42,45.76v0L51,77h0a2.4,2.4,0,0,1-.2.72.67.67,0,0,1-.06.12h0a2.56,2.56,0,0,1-1.3,1.19h0a2.53,2.53,0,0,1-.36.12h0a3.13,3.13,0,0,1-1.3.06L46.11,79h0L35.65,77.21l-29-4.92a3.53,3.53,0,0,1-.8-.24,3.4,3.4,0,0,1-1.42-1.23A3.13,3.13,0,0,1,4,70a2.46,2.46,0,0,1-.06-.9L11,5.93a2.38,2.38,0,0,1,.2-.73A2.51,2.51,0,0,1,12.35,4a2.94,2.94,0,0,1,1.84-.25l4.08.69a1.79,1.79,0,0,0,2.16-1.48A2,2,0,0,0,18.67.8L14.59.11a7.23,7.23,0,0,0-2.27,0A6.56,6.56,0,0,0,9.4,1.23,5.78,5.78,0,0,0,7.49,3.56,5.42,5.42,0,0,0,7,5.26L0,68.42a5.82,5.82,0,0,0,.14,2.12,6.89,6.89,0,0,0,1.49,2.81,7.63,7.63,0,0,0,2.66,2,7.8,7.8,0,0,0,1.87.57L31,80.1a2.14,2.14,0,0,0,.7.74h0l41,26.32,0,0a7.71,7.71,0,0,0,.85.45,7.62,7.62,0,0,0,2.42.64,7.08,7.08,0,0,0,3.5-.53,5.94,5.94,0,0,0,2.64-2.22l34.31-53a6.31,6.31,0,0,0,.42-.76,5.91,5.91,0,0,0,.49-2.21,6.52,6.52,0,0,0-.86-3.31Z"/><rect class="cls-1" x="94.62" y="50.16"/><polygon class="cls-1" points="98.45 60.38 98.45 60.38 98.45 60.38 98.45 60.38 98.45 60.38"/><path class="cls-1" d="M49.2,35.74A18.37,18.37,0,0,0,27,22.34a18.79,18.79,0,0,0-4.15,1.58,18.24,18.24,0,0,0-8.2,8.75c-.1.22-.18.42-.26.61a18.37,18.37,0,0,0,33.51,15c.09-.18.18-.38.28-.6A18.21,18.21,0,0,0,49.2,35.74Zm-.94,0,0,0L43.46,41l-5.18-.54L34.6,34.08l2.14-4.78,7-1.47A17.46,17.46,0,0,1,48.26,35.73Zm-15.9-13,3.55,6.18-2.14,4.79-7.24,1.52-3.85-3.5.76-7.11h0A17.43,17.43,0,0,1,32.36,22.74ZM15.09,33.84h0l6.92-1.46L26,35.93l-.78,7.31-4.53,2.58-6.5-2.9h0A17.42,17.42,0,0,1,15.09,33.84ZM20.32,53.7v0l.76-7.05L25.65,44l6.66,3,1.1,5.14-4.78,5.29a17.64,17.64,0,0,1-8.32-3.73Zm20.49,1.17,0,0-6.47-2.9-1.09-5.1,4.93-5.45,5.25.55L46.87,48l.06.08A17.38,17.38,0,0,1,40.81,54.87Z"/><path class="cls-1" d="M94.15,58A18.36,18.36,0,0,0,71.91,44.62a18.6,18.6,0,0,0-4.15,1.58A18.2,18.2,0,0,0,59.56,55c-.1.22-.19.42-.26.62a18.37,18.37,0,0,0,33.5,15c.1-.19.19-.39.29-.61A18.18,18.18,0,0,0,94.15,58Zm-.94,0,0,0-4.77,5.27-5.17-.54-3.69-6.42,2.15-4.78,7-1.47A17.48,17.48,0,0,1,93.21,58ZM77.31,45l3.56,6.19L78.72,56l-7.24,1.52L67.63,54l.76-7.1h0A17.43,17.43,0,0,1,77.31,45ZM60.05,56.13h0L67,54.67l3.91,3.55-.79,7.3-4.53,2.59L59.1,65.2h0A17.39,17.39,0,0,1,60.05,56.13ZM65.27,76v0l.75-7,4.57-2.61,6.67,3,1.1,5.15-4.78,5.28A17.62,17.62,0,0,1,65.27,76Zm20.5,1.16,0,0-6.48-2.9-1.08-5.11,4.93-5.44,5.24.54,3.49,6.08.06.08A17.35,17.35,0,0,1,85.77,77.15Z"/></g></g></svg>