<svg xmlns="http://www.w3.org/2000/svg" viewBox="0 0 23.19 19.81"><defs><style>.cls-1{fill:#524f5e;}</style></defs><g id="Capa_2" data-name="Capa 2"><g id="arte"><path class="cls-1" d="M22.85,19.12h-8l.22-.12.22-.14h0a5.61,5.61,0,0,0,2.34-3.33,5.72,5.72,0,0,0-.36-3.76,5.63,5.63,0,0,0-1.89-2.24,8.78,8.78,0,0,0,.87-.29v.16a.35.35,0,0,0,.35.32h0A.34.34,0,0,0,17,9.35l0-.43A2,2,0,0,0,18.07,7c-.25-1.21-1.78-1.41-3.26-1.61q-.33,0-.66-.09A11.23,11.23,0,0,1,11,4.21C10.51,4,10,3.71,9.39,3.48a3,3,0,0,0-1.92-.21V.34a.34.34,0,0,0-.68,0V3.52a4.11,4.11,0,0,0-.73.67A2.77,2.77,0,0,1,4.31,5.28c-.39,0-.72-.23-1-.76A3.64,3.64,0,0,1,3,3.57s0,0,0-.06V3.28a19.22,19.22,0,0,0-.17-3A.35.35,0,0,0,2.44,0a.35.35,0,0,0-.28.4,18.9,18.9,0,0,1,.16,2.83h0v.49A6.5,6.5,0,0,1,2.1,5.72a3.47,3.47,0,0,0,1,3.8l0,0a2.91,2.91,0,0,0,.35.18l0,.44a.34.34,0,0,0,.34.32h0a.35.35,0,0,0,.33-.36l0-.21A4.59,4.59,0,0,0,5,10h.45v.2a.36.36,0,0,0,.35.33h0a.34.34,0,0,0,.32-.36V9.91c.64-.08,2-.23,2.59-.27a5.68,5.68,0,0,0-2.08,5.9s0,0,0,.05a6,6,0,0,0,.63,1.48,5.61,5.61,0,0,0,2.14,2.05H.34a.35.35,0,0,0-.34.35.34.34,0,0,0,.34.34H22.85a.34.34,0,0,0,.34-.34A.35.35,0,0,0,22.85,19.12ZM9.05,18l-.16-1.8,1.26-.85,2.21,1.13L12.75,18l-.91,1.12A5.23,5.23,0,0,1,11,19,5.16,5.16,0,0,1,9.05,18Zm4.13-5.91,1.06,2.08-1.66,1.65L10.5,14.78l.37-2.3Zm.08,6.34.94.23a5,5,0,0,1-1.46.4Zm1.8-.27-1.65-.41L13,16.37l1.74-1.73,1.16.28.64,1.54A4.74,4.74,0,0,1,15.06,18.19ZM17,15.35a1.17,1.17,0,0,1,0,.2l-.36-.86.56-.7A5.16,5.16,0,0,1,17,15.35Zm.17-8.57C16.26,8,13.6,8,11.47,7.84c-.48,0-1-.06-1.43-.06a.77.77,0,0,1,.09-.13,2.12,2.12,0,0,1,1.43-.55c1.76-.12,2.72-.42,3.09-1h.07A5.18,5.18,0,0,1,17.16,6.78ZM4.25,6h.1a3.31,3.31,0,0,0,2.2-1.31,3.44,3.44,0,0,1,.63-.57h0a2.15,2.15,0,0,1,1-.19,3.39,3.39,0,0,0-.41.34.35.35,0,0,0,.25.58.36.36,0,0,0,.25-.11,2.24,2.24,0,0,1,.91-.54l.51.22a3.47,3.47,0,0,0-.46.36.36.36,0,0,0,0,.49.38.38,0,0,0,.24.09.35.35,0,0,0,.25-.1,1.94,1.94,0,0,1,.77-.47l.18.09.62.29a2.88,2.88,0,0,0-.43.35.34.34,0,0,0,0,.48.33.33,0,0,0,.24.1.39.39,0,0,0,.25-.1,1.68,1.68,0,0,1,.79-.46A9.57,9.57,0,0,0,13.77,6a6.36,6.36,0,0,1-2.26.44c-1.66.11-2.11,1-2.23,1.36-.69,0-1.35,0-1.95.09A7.74,7.74,0,0,1,4.71,7.8a5.23,5.23,0,0,1-.79-.58,2.23,2.23,0,0,0-1.28-.63,4.89,4.89,0,0,1,.12-.7c.07-.26.12-.48.16-.71A1.57,1.57,0,0,0,4.25,6ZM3.48,9a2.53,2.53,0,0,1-.84-1.68,1.71,1.71,0,0,1,.84.47,6.15,6.15,0,0,0,.87.64,2.86,2.86,0,0,0,1.38.23c.46,0,1,0,1.64-.07a28.54,28.54,0,0,1,4,0,14.46,14.46,0,0,0,4-.1,4.34,4.34,0,0,0,1.89-.8,1.78,1.78,0,0,1-.84.78h0a7.78,7.78,0,0,1-2.63.68A21.48,21.48,0,0,1,11.49,9c-.56,0-1.13-.08-1.67-.09h0c-.36,0-.72,0-1,0-.71,0-2.82.29-3,.32H5.63A3.91,3.91,0,0,1,3.48,9Zm3.87,4A4.94,4.94,0,0,1,9.5,10a.34.34,0,0,0,.34.29h0a.34.34,0,0,0,.32-.36V9.64l1.28.07h0V10a.35.35,0,0,0,.35.32h0a.34.34,0,0,0,.32-.36v-.2c.6,0,1.15.05,1.62,0v.15a.34.34,0,0,0,.34.33h0a.36.36,0,0,0,.33-.37V9.74a5,5,0,0,1,2.21,2.31,5.89,5.89,0,0,1,.34,1l-1,1.19L14.88,14l-1.12-2.22.24-.5a.34.34,0,0,0-.62-.3l-.24.5-2.46.38L9.77,11a.34.34,0,0,0-.45.52l.88.76-.39,2.47-1.32.89-1.18-.45A5,5,0,0,1,7.35,13Zm.56,3.77a5.08,5.08,0,0,1-.33-.66l.63.24.08,1C8.16,17.09,8,16.91,7.91,16.72Z"/></g></g></svg>