<svg xmlns="http://www.w3.org/2000/svg" viewBox="0 0 65.07 92.7"><defs><style>.cls-1{opacity:0.61;}.cls-2{fill:#119f52;}</style></defs><g id="Capa_2" data-name="Capa 2"><g id="arte"><g class="cls-1"><path class="cls-2" d="M35.12,33.39c-.26.31-.54.61-.83.9a14.81,14.81,0,0,1-6.78,3.9l-.05-12.75a4.1,4.1,0,0,0-1.2-2.87,3.75,3.75,0,0,0-2.64-1.13h-.07a3.9,3.9,0,0,0-3.88,3.91l0,12.83a14.61,14.61,0,0,1-3.93-1.68,15.07,15.07,0,1,1,19.33-3.11Z"/></g><path class="cls-2" d="M40.36,6.91A23.65,23.65,0,0,0,6.92,40.35,23.52,23.52,0,0,0,19.76,47l0-4.24A19.49,19.49,0,0,1,9.87,37.4,19.47,19.47,0,1,1,39.48,35a19,19,0,0,1-2.07,2.44c-.18.18-.36.36-.54.52a4.39,4.39,0,0,1,.63.51,4.13,4.13,0,0,1,1.2,2.88v.55a21.34,21.34,0,0,0,1.66-1.51,24,24,0,0,0,2.87-3.46A23.71,23.71,0,0,0,40.36,6.91ZM27.53,42.71l0,4.24a24.87,24.87,0,0,0,3.38-.83l0-4.42A19.29,19.29,0,0,1,27.53,42.71Z"/><path class="cls-2" d="M35.12,33.39c-.26.31-.54.61-.83.9a14.81,14.81,0,0,1-6.78,3.9l0,4.52,0,4.24,0,9a1.67,1.67,0,0,0,1.63,1.69h.06A1.75,1.75,0,0,0,31,55.86l0-9.74,0-4.42v-.49a3.9,3.9,0,0,1,3.88-3.91h.07a3.75,3.75,0,0,1,2,.61c.18-.16.36-.34.54-.52A19,19,0,0,0,39.48,35,7.65,7.65,0,0,0,35.12,33.39ZM65.07,65.86l0-4,0-13.38a7.84,7.84,0,0,0-7.81-7.79H57a7.46,7.46,0,0,0-3.59,1A7.83,7.83,0,0,0,46,36.38h-.15a7.45,7.45,0,0,0-2.58.51,7.59,7.59,0,0,0-1.5.77,8.18,8.18,0,0,0-1.45-2,8.91,8.91,0,0,0-.8-.7,7.65,7.65,0,0,0-4.36-1.57h-.35a7.7,7.7,0,0,0-3.35.77l0-8.72A8.12,8.12,0,0,0,29,19.79a7.7,7.7,0,0,0-5.36-2.28h-.17a7.84,7.84,0,0,0-7.77,7.85l0,11.14,0,5,0,4.49v3.76a7.8,7.8,0,0,0-7.47-1.49h0a7.83,7.83,0,0,0-5,9.85l3,9.08v0l2.8,8.3a25.67,25.67,0,0,0,6.13,9.88,24.67,24.67,0,0,0,16.87,7.3h.82l5.55,0a26.55,26.55,0,0,0,13.6-3.78C59.66,84.35,64.24,77.29,65,69c.1-.83.1-2.11.1-2.12h0Zm-4,2.72c-.63,7.49-4.88,13.28-11,17a22.61,22.61,0,0,1-11.6,3.22l-5.55,0h-.69A20.81,20.81,0,0,1,18,82.61a21.57,21.57,0,0,1-5.19-8.36L10,66,7.07,56.87A3.89,3.89,0,0,1,9.56,52a4.17,4.17,0,0,1,1.2-.19,3.88,3.88,0,0,1,2.76,1.14,3.68,3.68,0,0,1,1,1.55L17,62.09l.14.43a1.45,1.45,0,0,0,.35.58,1.34,1.34,0,0,0,1,.39,1.37,1.37,0,0,0,1.41-1.4L19.76,47l0-4.24,0-4.53,0-12.83a3.9,3.9,0,0,1,3.88-3.91h.07a3.75,3.75,0,0,1,2.64,1.13,4.1,4.1,0,0,1,1.2,2.87l.05,12.75,0,4.52,0,4.24,0,9a1.67,1.67,0,0,0,1.63,1.69h.06A1.75,1.75,0,0,0,31,55.86l0-9.74,0-4.42v-.49a3.9,3.9,0,0,1,3.88-3.91h.07a3.75,3.75,0,0,1,2,.61,4.39,4.39,0,0,1,.63.51,4.13,4.13,0,0,1,1.2,2.88v.55l.06,16.08a1.74,1.74,0,0,0,.51,1.2,1.7,1.7,0,0,0,1.13.49h.06a1.76,1.76,0,0,0,1.69-1.78l-.06-13.5a4,4,0,0,1,3.81-4H46a3.89,3.89,0,0,1,3.91,3.87L50,60.27a1.71,1.71,0,0,0,.49,1.19,1.74,1.74,0,0,0,1.21.49,1.68,1.68,0,0,0,1.68-1.7l0-11.55a4,4,0,0,1,3.81-4h.07a3.88,3.88,0,0,1,2.77,1.14,3.83,3.83,0,0,1,1.14,2.74l.06,13.37v5A15.48,15.48,0,0,1,61.06,68.58ZM30.93,46.12l0-4.42a19.29,19.29,0,0,1-3.38,1l0,4.24,0,9a1.67,1.67,0,0,0,1.63,1.69h.06A1.75,1.75,0,0,0,31,55.86Zm0,0,0-4.42a19.29,19.29,0,0,1-3.38,1l0,4.24,0,9a1.67,1.67,0,0,0,1.63,1.69h.06A1.75,1.75,0,0,0,31,55.86Z"/></g></g></svg>