<svg xmlns="http://www.w3.org/2000/svg" viewBox="0 0 19.86 27.47"><defs><style>.cls-1{isolation:isolate;}.cls-2{fill:#e5373a;}.cls-3{fill:#e6e7e8;}.cls-3,.cls-4{mix-blend-mode:multiply;}.cls-4{fill:#d1d3d4;}.cls-5{fill:#f9d511;}.cls-6{fill:#ffaa01;}.cls-7{fill:#fa9401;}.cls-8{mix-blend-mode:screen;}.cls-9{fill:#231f20;}</style></defs><g class="cls-1"><g id="Capa_2" data-name="Capa 2"><g id="arte"><polygon class="cls-2" points="5.7 27.47 3.94 23.83 0 24.74 4.99 14.33 10.69 17.05 5.7 27.47"/><polygon class="cls-3" points="10.34 16.89 5.48 27.02 5.7 27.47 10.69 17.05 10.34 16.89"/><polygon class="cls-2" points="14.16 27.47 15.92 23.83 19.86 24.74 14.87 14.33 9.17 17.05 14.16 27.47"/><polygon class="cls-3" points="9.52 16.89 14.38 27.02 14.16 27.47 9.17 17.05 9.52 16.89"/><path class="cls-4" d="M15.17,15A7.42,7.42,0,0,1,7,16.53,7.59,7.59,0,0,1,4.68,15l-.79,1.66c.46,0,1-.05,1.34.17a2,2,0,0,1,.54.9c.14.33.3.65.56.75.53.23,1.36-.51,1.95-.39s.92.86,1.41,1.06l.24-.49.23.49c.5-.2.93-1,1.42-1.06s1.42.62,1.95.39.61-1.33,1.1-1.65A3,3,0,0,1,16,16.63Z"/><circle class="cls-5" cx="9.93" cy="9.41" r="7.58"/><path class="cls-6" d="M18.23,11.06c.11-.56,1.11-1.05,1.11-1.65s-1-1.09-1.11-1.65.62-1.42.39-1.95c-.1-.26-.42-.42-.75-.56A2.06,2.06,0,0,1,17,4.71c-.32-.49,0-1.54-.38-1.95a1.06,1.06,0,0,0-.76-.22,2.56,2.56,0,0,1-1.19-.17,1.21,1.21,0,0,1-.38-.53c-.21-.44-.36-1-.72-1.13-.53-.22-1.37.51-1.95.4S10.52,0,9.93,0,8.84,1,8.28,1.11h-.2c-.56,0-1.28-.6-1.75-.41s-.62,1.34-1.1,1.66-1.54,0-2,.39,0,1.46-.38,2-1.43.55-1.66,1.1S1.59,7,1.64,7.56a1.27,1.27,0,0,1,0,.2C1.52,8.32.52,8.81.52,9.41s1,1.09,1.11,1.65S1,12.48,1.23,13c.15.36.69.52,1.13.72a1.27,1.27,0,0,1,.53.38,2.46,2.46,0,0,1,.16,1.19,1.11,1.11,0,0,0,.22.76c.42.42,1.47.06,2,.39a2.06,2.06,0,0,1,.54.91,1.32,1.32,0,0,0,.56.75c.53.22,1.36-.51,1.95-.4s1.05,1.11,1.65,1.11,1.09-1,1.65-1.11,1.42.62,1.95.4.61-1.34,1.1-1.66,1.54,0,1.95-.39.06-1.46.38-1.95,1.44-.55,1.66-1.1S18.11,11.64,18.23,11.06ZM9.93,16.8a7.39,7.39,0,0,1-3-.62,7.48,7.48,0,0,1-2.72-2.06,7.46,7.46,0,0,1-1.7-4.71,7.33,7.33,0,0,1,1.06-3.8A7.44,7.44,0,0,1,6.13,3.07,7.4,7.4,0,0,1,16.69,6.43a7.24,7.24,0,0,1,.63,3A7.4,7.4,0,0,1,9.93,16.8Z"/><circle class="cls-6" cx="9.93" cy="9.41" r="6.75"/><path class="cls-7" d="M17.61,9.7A7.4,7.4,0,0,0,15.3,4.33,7.39,7.39,0,0,1,4.85,14.78,7.39,7.39,0,0,0,17.61,9.7Z"/><path class="cls-7" d="M3.47,9.76A6.75,6.75,0,0,1,15.26,5.27,6.75,6.75,0,1,0,4.89,13.9,6.71,6.71,0,0,1,3.47,9.76Z"/><path class="cls-7" d="M13.94,8.74l-2.43-.43a.24.24,0,0,1-.17-.13L10.29,6a.24.24,0,0,0-.42,0l-1,2.18a.21.21,0,0,1-.17.13l-2.43.43a.23.23,0,0,0-.11.4l1.82,1.6A.27.27,0,0,1,8,11l-.43,2.23a.23.23,0,0,0,.33.25L10,12.37a.2.2,0,0,1,.21,0l2.07,1.07a.23.23,0,0,0,.33-.25L12.16,11a.23.23,0,0,1,.07-.22l1.83-1.6A.23.23,0,0,0,13.94,8.74Z"/><path class="cls-5" d="M13.79,8.48l-2.43-.43a.21.21,0,0,1-.17-.13l-1-2.18a.24.24,0,0,0-.42,0L8.67,7.92a.24.24,0,0,1-.17.13l-2.43.43a.23.23,0,0,0-.12.4l1.83,1.6a.23.23,0,0,1,.07.22l-.43,2.24a.22.22,0,0,0,.33.24l2.07-1.07a.2.2,0,0,1,.21,0l2.07,1.07a.23.23,0,0,0,.34-.24L12,10.7a.27.27,0,0,1,.08-.22l1.82-1.6A.23.23,0,0,0,13.79,8.48Z"/><g class="cls-8"><path class="cls-9" d="M14.25,1.84l-1,1L3.34,12.76l-1,1c-.44-.2-1-.36-1.13-.72-.22-.53.51-1.37.4-1.95S.52,10,.52,9.41s1-1.09,1.11-1.65a1.27,1.27,0,0,0,0-.2l2-1.95L8.08,1.12h.2C8.84,1,9.33,0,9.93,0S11,1,11.58,1.11,13,.49,13.53.71C13.89.86,14,1.4,14.25,1.84Z"/><path class="cls-9" d="M17.87,5.25,5.77,17.36a2.06,2.06,0,0,0-.54-.91c-.49-.33-1.54,0-2-.39a1.11,1.11,0,0,1-.22-.76l1.18-1.18L14.64,3.72l1.18-1.18a1.06,1.06,0,0,1,.76.22c.41.41.06,1.46.38,2A2.06,2.06,0,0,0,17.87,5.25Z"/></g></g></g></g></svg>