<svg xmlns="http://www.w3.org/2000/svg" viewBox="0 0 142.78 86.09"><defs><style>.cls-1{fill:#b01657;}</style></defs><g id="Capa_2" data-name="Capa 2"><g id="arte"><path class="cls-1" d="M101.51,12.73a31.77,31.77,0,1,0,39.81,20.82A31.81,31.81,0,0,0,101.51,12.73Zm37,19.65-1.75,2.46-9.29-3.48-.23-9.93,2.87-.85A29.23,29.23,0,0,1,138.5,32.38ZM127.88,18.87l-2,.58a1.4,1.4,0,0,0-1,1.34l.25,10.75L121,34.2l-12.8-3.84-1.58-5,6.74-8.46a1.36,1.36,0,0,0,0-1.64l-1.22-1.66A29.65,29.65,0,0,1,127.88,18.87ZM120,36.27l-.39,13.43-11.93,3.73-8-10.79,8-10ZM95.55,17.92a29,29,0,0,1,6.64-3,29.62,29.62,0,0,1,7.17-1.31L111.15,16,105,23.79l-9.51-2.85Zm-2.32,1.59,0,2.07a1.35,1.35,0,0,0,1,1.33L104.48,26l1.58,5L97.74,41.5l-4.95.19-6-9a1.38,1.38,0,0,0-1.54-.5h0l-1.93.64A29.62,29.62,0,0,1,93.23,19.51Zm-10.72,16,2.84-1,5.48,8.29L85.18,51l-2.84-1A29.29,29.29,0,0,1,82.51,35.5ZM92.73,64.15l0,2a29.28,29.28,0,0,1-9.62-13.51l2,.7a1.31,1.31,0,0,0,.83,0,1.4,1.4,0,0,0,.72-.52L92.81,44l4.94-.19L106,54.94l-1.86,5L93.82,62.8A1.36,1.36,0,0,0,92.73,64.15Zm16,8.3A29.6,29.6,0,0,1,95,67.82l0-3,9.56-2.65,6,7.9Zm11.08-1.26a29.12,29.12,0,0,1-8.28,1.34l1.28-1.65a1.33,1.33,0,0,0,0-1.64l-6.53-8.56,1.87-5,12.41-3.88,4.39,3-.47,10.68a1.35,1.35,0,0,0,1,1.44l1.95.62A29.09,29.09,0,0,1,119.83,71.19Zm9.81-5.28L126.78,65l.43-9.93,9.37-3.28,1.69,2.49A29.77,29.77,0,0,1,129.64,65.91Zm8.4-16a1.3,1.3,0,0,0-1.56-.49L126.28,53l-4.38-3,.41-13.89,4.17-2.66,10.17,3.81a1.36,1.36,0,0,0,1.54-.5l1.2-1.67a29.2,29.2,0,0,1-.18,16.58Z"/><path class="cls-1" d="M107.27,18a1,1,0,0,0,.35-.05,1.14,1.14,0,0,0-.33-2.22,14.9,14.9,0,0,0-8.82,2.77,1.13,1.13,0,0,0,1.31,1.85A12.64,12.64,0,0,1,107.27,18Z"/><path class="cls-1" d="M85.21,48.13A1.13,1.13,0,0,0,86,46.71,12.61,12.61,0,0,1,86,38.86a1.14,1.14,0,1,0-2.16-.72,14.89,14.89,0,0,0-.09,9.24A1.13,1.13,0,0,0,85.21,48.13Z"/><path class="cls-1" d="M99.31,65.5a1.14,1.14,0,0,0-1.59.24A1.12,1.12,0,0,0,98,67.32a14.8,14.8,0,0,0,8.76,3,1,1,0,0,0,.35,0,1.14,1.14,0,0,0-.32-2.22A12.57,12.57,0,0,1,99.31,65.5Z"/><path class="cls-1" d="M133.43,54.81a12.59,12.59,0,0,1-4.68,6.3,1.14,1.14,0,0,0-.27,1.58,1.15,1.15,0,0,0,1.27.43,1.3,1.3,0,0,0,.31-.16,14.87,14.87,0,0,0,5.52-7.42,1.14,1.14,0,0,0-2.15-.73Z"/><path class="cls-1" d="M133.67,31.75a1.13,1.13,0,1,0,2.16-.67,14.83,14.83,0,0,0-5.35-7.54,1.13,1.13,0,0,0-1.59.23,1.14,1.14,0,0,0,.23,1.59A12.63,12.63,0,0,1,133.67,31.75Z"/><path class="cls-1" d="M104.73,42.37l1.94-2.2a1.13,1.13,0,0,0-1.7-1.5l-2.44,2.76a1.37,1.37,0,0,0,0,1.74l5.71,7.38a1.13,1.13,0,0,0,1.24.39.92.92,0,0,0,.35-.19,1.13,1.13,0,0,0,.21-1.59Z"/><path class="cls-1" d="M76.33,16.13,58,1.84a3,3,0,0,0-1.39-.58L42,0a1.67,1.67,0,0,0-1.55.52,1.73,1.73,0,0,0-.39,1.63c1.26,4.67-1.37,8.77-6.72,10.44h0c-4.07,1.26-9.51.77-11.48-4.74a1.72,1.72,0,0,0-1.24-1.11,1.64,1.64,0,0,0-1.49.37L7.72,16.63A2.91,2.91,0,0,0,7,17.82L.08,40a1.74,1.74,0,0,0,1,2.13l12.74,5a1.68,1.68,0,0,0,1.32,0,1.66,1.66,0,0,0,.91-1l3.24-8.48,14.8,47.22A1.72,1.72,0,0,0,36.27,86L72.85,74.55A1.73,1.73,0,0,0,74,72.38L59.19,25.16l7.5,5.12a1.72,1.72,0,0,0,2.4-.46l7.62-11.36A1.73,1.73,0,0,0,76.33,16.13ZM13.8,44,3.14,39.87,4,37l10.88,4.15ZM70.9,72.15,36.51,82.92l-1-3.19L69.9,69ZM69,66.21,34.65,77l-1-3.2L68,63Zm-11-45.29a1.73,1.73,0,0,0-2.62,1.95l11.73,37.4L32.79,71.05,21.07,33.64a1.73,1.73,0,0,0-1.6-1.21,1.52,1.52,0,0,0-.56.08,1.71,1.71,0,0,0-1.1,1l-1.87,4.91L4.88,34.22,9.65,18.76,19.8,10.33c2.56,5,8.14,7,14.4,5.05s9.73-6.81,9-12.38l13,1.11,12.85,10L62.4,23.87Zm9.28,6.33-2.57-1.76,6.55-9.61,2.4,1.86Z"/><path class="cls-1" d="M43.67,26.21,32.38,29.75a1.44,1.44,0,1,0,.86,2.74l9.41-3L39.33,45.35a1.44,1.44,0,0,0,1.11,1.7,1.5,1.5,0,0,0,.73,0,1.45,1.45,0,0,0,1-1.08l3.7-17.61a1.74,1.74,0,0,0-2.18-2.12Z"/></g></g></svg>