<svg xmlns="http://www.w3.org/2000/svg" viewBox="0 0 111.67 101.1"><defs><style>.cls-1{fill:#b01657;}</style></defs><g id="Capa_2" data-name="Capa 2"><g id="arte"><path class="cls-1" d="M59.34,9.69l-3.86-1a1.81,1.81,0,0,0-2.17,1.15A1.74,1.74,0,0,1,50,8.94a1.8,1.8,0,0,0-1.32-2.06l-4.21-1.1a1.81,1.81,0,0,0-2.17,1.14A1.72,1.72,0,0,1,40.17,8a1.74,1.74,0,0,1-1.28-2A1.8,1.8,0,0,0,37.57,4L33.35,2.87A1.8,1.8,0,0,0,31.19,4a1.74,1.74,0,0,1-3.36-.87,1.81,1.81,0,0,0-1.32-2.07l-3.87-1a1.93,1.93,0,0,0-2.35,1.38L.06,78.55a1.93,1.93,0,0,0,1.37,2.36l7.64,2a1.92,1.92,0,0,0,2.32-1.31,9.28,9.28,0,0,1,18,4.72,1.9,1.9,0,0,0,1.37,2.27l7.42,2a1.93,1.93,0,0,0,2.35-1.38l2.71-10.32.87-3.33a11.47,11.47,0,0,0-2.64-1.71l-.78,3L37.86,87.38,32.43,86a12.33,12.33,0,0,0-1.88-8.49,12.08,12.08,0,0,0-6.87-5.06l-.27-.08A12.26,12.26,0,0,0,8.86,79.77L3.21,78.29l4.4-16.74,4.29,1.13.76-2.89-4.3-1.13L22.91,3.22l1.92.5A4.72,4.72,0,0,0,33.52,6l2.37.62a4.73,4.73,0,0,0,8.69,2.29L47,9.53a4.73,4.73,0,0,0,8.7,2.28l1.91.5L48.35,47.39l-1.3,5,4-3.29,1.31-5,8.41-32A1.94,1.94,0,0,0,59.34,9.69Z"/><polygon class="cls-1" points="32.01 64.86 29.19 67.21 27.02 66.64 27.52 64.72 27.77 63.75 28.47 63.93 32.01 64.86"/><rect class="cls-1" x="18.35" y="59.72" width="2.99" height="7.01" transform="translate(-46.34 66.36) rotate(-75.3)"/><path class="cls-1" d="M34.86,28.25a15.29,15.29,0,1,0,1.55,29.08h0a15.28,15.28,0,0,0-1.56-29.07Zm8.41,15.44a12.66,12.66,0,0,1-.39,2.48A12.23,12.23,0,0,1,42,48.52h-.07l-1-2.87,2.29-2Zm-1.51-6.52A12.6,12.6,0,0,1,42.88,40l-4.09,3.57L37.5,43.2l-1.68-4.75.61-1.05,4.34-.1Zm-6.39-5.6a12.15,12.15,0,0,1,4.22,2.73v0l-3.06.07-1.2-2.79Zm-6.91.57L28.85,31a12.54,12.54,0,0,1,2.88-.17h0l2.17,5-.6,1-5.19.39-.84-1.08ZM34.6,44l-3.27,2.86-3.82-2.55,1.06-4.07,4.59-.35ZM25.3,32.16l0,0-.87,2.91-3,.27,0,0A12.26,12.26,0,0,1,25.3,32.16Zm-6.22,7.76a12.91,12.91,0,0,1,.45-1.37l5.4-.49.84,1.1-1.24,4.71-1.27.55L18.8,41.34A11.87,11.87,0,0,1,19.08,39.92Zm1.66,9.82h0a12.21,12.21,0,0,1-1.83-4.67l0,0,2.52,1.74Zm5.69,3.72-.71.68a12.1,12.1,0,0,1-2.56-1.63l1.21-5.31,1.26-.54L30,49.56v1.2Zm7.76,1.44a12.25,12.25,0,0,1-5,.29l0,0,2.42-1.84,2.63,1.56ZM33,50.64V49.43l3.79-3.32,1.3.34,1.45,4.1.41,1a11.88,11.88,0,0,1-2.31,1.88Z"/><rect class="cls-1" x="42.48" y="17.93" width="5.97" height="2.99" transform="translate(15.13 58.47) rotate(-75.3)"/><rect class="cls-1" x="42.01" y="24.34" width="3.54" height="2.99" transform="translate(7.68 61.62) rotate(-75.3)"/><rect class="cls-1" x="26.99" y="13.87" width="5.97" height="2.99" transform="translate(7.51 40.45) rotate(-75.3)"/><rect class="cls-1" x="26.52" y="20.27" width="3.54" height="2.99" transform="translate(0.06 43.6) rotate(-75.3)"/><rect class="cls-1" x="31.8" y="15.49" width="6.53" height="2.99" transform="translate(9.73 46.59) rotate(-75.3)"/><rect class="cls-1" x="31.89" y="21.9" width="2.99" height="2.99" transform="translate(2.28 49.74) rotate(-75.3)"/><rect class="cls-1" x="35.94" y="21.81" width="5.97" height="2.99" transform="translate(6.5 55.04) rotate(-75.3)"/><rect class="cls-1" x="38.83" y="15.4" width="3.54" height="2.99" transform="translate(13.95 51.88) rotate(-75.3)"/><path class="cls-1" d="M111.22,47l-2.56-3.07a1.81,1.81,0,0,0-2.43-.32A1.75,1.75,0,0,1,104,40.88a1.81,1.81,0,0,0,.13-2.44l-2.79-3.35a1.8,1.8,0,0,0-2.43-.32,1.75,1.75,0,0,1-2.22-2.68,1.8,1.8,0,0,0,.12-2.44L94,26.3A1.78,1.78,0,0,0,91.61,26a1.75,1.75,0,0,1-2.35-.32,1.73,1.73,0,0,1,.12-2.35,1.81,1.81,0,0,0,.13-2.45L87,17.78a1.93,1.93,0,0,0-2.71-.24L52.31,44.1l-4,3.29-1.3,5,4-3.29L85.34,20.51,86.6,22a4.73,4.73,0,0,0,5.75,6.91l1.57,1.88a4.72,4.72,0,0,0,5.74,6.91l1.57,1.88A4.73,4.73,0,0,0,107,46.53l1.26,1.52L64.18,84.7l-2.84-3.41L59.05,83.2l2.83,3.41L48.58,97.68,45,93.36A12.26,12.26,0,0,0,45.57,77a12.05,12.05,0,0,0-1.51-1.52,11.47,11.47,0,0,0-2.64-1.71,12.35,12.35,0,0,0-12,.83l-3.73-4.49,3.52-2.93L32,64.86l-3.54-.93-.95.79L23,68.52a1.92,1.92,0,0,0-.25,2.71l1,1.18,4.07,4.89a1.9,1.9,0,0,0,2.64.29l.16-.12a9.34,9.34,0,0,1,10.09-.71,9.15,9.15,0,0,1,2.55,2.08l.09.1a9.32,9.32,0,0,1-1,12.92,1.91,1.91,0,0,0-.2,2.65L47,100.4a1.92,1.92,0,0,0,2.71.25l61.3-51A1.94,1.94,0,0,0,111.22,47ZM44.07,51l-7.65,6.37A15.29,15.29,0,0,0,44.07,51Z"/><path class="cls-1" d="M39,59.07l-7,5.79-3.54-.93,7.94-6.6h0A15.29,15.29,0,0,0,44.07,51l4.28-3.56-1.3,5-5.78,4.81"/><rect class="cls-1" x="53.71" y="72.74" width="2.99" height="7.01" transform="translate(-35.99 52.93) rotate(-39.75)"/><polygon class="cls-1" points="47.05 64.12 46.12 67.66 44.57 65.8 46.86 63.89 47.05 64.12"/><polygon class="cls-1" points="51.34 69.28 49.05 71.18 46.12 67.66 47.05 64.12 51.34 69.28"/><path class="cls-1" d="M78.53,69.36a15.29,15.29,0,1,0-21.53-2A15.31,15.31,0,0,0,78.53,69.36Zm-7.45.32a12.87,12.87,0,0,1-3,.19L66,64.93l.69-1,5-.5.86,1L71.3,68.66Zm7.3-4.41a12,12,0,0,1-1.76,1.8,12.42,12.42,0,0,1-2.08,1.4l-.06,0,.85-2.92,3-.3ZM80.23,62l-5.41.53-.86-1,1.41-4.84,1.1-.5,3.59,2.44.88.48A12.33,12.33,0,0,1,80.23,62ZM79,50.82a12.33,12.33,0,0,1,1.86,4.68h0L78.3,53.79l.64-3ZM65.46,45.76a12.25,12.25,0,0,1,5-.31l0,0-2.39,1.86L65.45,45.8Zm4.26,4.1,3.33-2.59,1-.74a12.46,12.46,0,0,1,2.44,1.53h0l-1.17,5.35-1.09.5-4.45-2.69Zm-9.88-.72a12.34,12.34,0,0,1,1-1,12.14,12.14,0,0,1,1.18-.85h0L66.73,50l0,1.39L63,54.53l-1.36-.29Zm5.35,7.47,3.24-2.69,3.93,2.38-1.21,4.19-4.33.43Zm-7.48-4.4h0l1,2.88-2.26,2,0,0A12.32,12.32,0,0,1,57.71,52.21Zm-.82,8.55L61,57.15l1.34.29,1.83,4.87-.69,1L59,63.44l-1,.14A12.41,12.41,0,0,1,56.89,60.76Zm3.34,5.63,3-.09,1.23,2.8h0a12,12,0,0,1-4.26-2.67Z"/><rect class="cls-1" x="91.28" y="45.31" width="5.97" height="2.99" transform="translate(-8.13 71.1) rotate(-39.75)"/><rect class="cls-1" x="87.4" y="49.54" width="3.54" height="2.99" transform="translate(-12.02 68.83) rotate(-39.75)"/><rect class="cls-1" x="81.04" y="33" width="5.97" height="2.99" transform="translate(-2.63 61.71) rotate(-39.75)"/><rect class="cls-1" x="77.16" y="37.23" width="3.54" height="2.99" transform="translate(-6.51 59.43) rotate(-39.75)"/><rect class="cls-1" x="83.96" y="37.28" width="6.53" height="2.99" transform="translate(-4.63 64.74) rotate(-39.75)"/><rect class="cls-1" x="80.64" y="41.51" width="2.99" height="2.99" transform="translate(-8.51 62.47) rotate(-39.75)"/><rect class="cls-1" x="83.71" y="44.66" width="5.97" height="2.99" transform="translate(-9.47 66.11) rotate(-39.75)"/><rect class="cls-1" x="90.01" y="40.43" width="3.54" height="2.99" transform="translate(-5.59 68.39) rotate(-39.75)"/></g></g></svg>