<svg xmlns="http://www.w3.org/2000/svg" viewBox="0 0 26.36 19.65"><defs><style>.cls-1{fill:#e0e0e0;}</style></defs><g id="Capa_2" data-name="Capa 2"><g id="arte"><path class="cls-1" d="M5.32,18.65H.5a.5.5,0,0,0-.5.5.5.5,0,0,0,.5.5H5.32a.51.51,0,0,0,.5-.5A.5.5,0,0,0,5.32,18.65Z"/><path class="cls-1" d="M4.32,8.42h1.8a.5.5,0,0,0,.5-.5.5.5,0,0,0-.5-.5H4.32a.51.51,0,0,0-.5.5A.5.5,0,0,0,4.32,8.42Z"/><path class="cls-1" d="M25.69,7.69a8.73,8.73,0,0,0-1.47-2.33L24.59,5l.17.16a.24.24,0,0,0,.35,0l.5-.49a.25.25,0,0,0,0-.36L24.42,3.12a.25.25,0,0,0-.36,0l-.49.5a.25.25,0,0,0,0,.36l.16.16-.37.37a8.58,8.58,0,0,0-2.25-1.4,9,9,0,0,0-2.54-.64V1.86H19a.26.26,0,0,0,.26-.25V.25A.26.26,0,0,0,19,0h-2.4a.26.26,0,0,0-.26.25V1.61a.26.26,0,0,0,.26.25H17v.61A8.59,8.59,0,0,0,13,3.9H7.45a.5.5,0,0,0-.5.5.5.5,0,0,0,.5.5h4.28q-.33.33-.63.69A8.59,8.59,0,0,0,10,7.43H7.89a.5.5,0,0,0-.5.5.5.5,0,0,0,.5.5h2.72l.12-.31a7.74,7.74,0,0,1,1.14-1.89,7.59,7.59,0,0,1,1.62-1.48,7.45,7.45,0,0,1,3.67-1.29h1.2A7.62,7.62,0,0,1,20.72,4a7.62,7.62,0,0,1,4.05,4.05,7.72,7.72,0,0,1,0,5.92,7.82,7.82,0,0,1-1.63,2.42,7.61,7.61,0,0,1-5.38,2.23H7.45a.5.5,0,0,0-.5.5.5.5,0,0,0,.5.5H17.76a8.6,8.6,0,0,0,6.08-2.52,8.66,8.66,0,0,0,1.85-2.74,8.71,8.71,0,0,0,0-6.7Z"/><path class="cls-1" d="M11.37,15.17a7.56,7.56,0,0,1-1.14-3l-.06-.42H2.91a.5.5,0,0,0-.5.5.51.51,0,0,0,.5.5H9.32A8.29,8.29,0,0,0,10.09,15H5.43a.5.5,0,0,0-.5.5.5.5,0,0,0,.5.5h6.44Z"/><path class="cls-1" d="M3.55,15H2.26a.5.5,0,0,0-.5.5.5.5,0,0,0,.5.5H3.55a.5.5,0,0,0,.5-.5A.5.5,0,0,0,3.55,15Z"/><path class="cls-1" d="M13.18,15.63A6.49,6.49,0,0,0,20.28,17a6.49,6.49,0,0,0,2.06-1.38,6.69,6.69,0,0,0,1.39-2.06,6.6,6.6,0,0,0,.51-2.52,6.5,6.5,0,0,0-4-6,6.49,6.49,0,0,0-8.49,3.45,6.34,6.34,0,0,0-.51,2.52,6.41,6.41,0,0,0,.51,2.52A6.69,6.69,0,0,0,13.18,15.63ZM12.67,8.9a5.67,5.67,0,0,1,1.18-1.76A5.5,5.5,0,0,1,15.61,6a5.47,5.47,0,0,1,4.3,0,5.35,5.35,0,0,1,1.75,1.18A5.53,5.53,0,0,1,22.85,8.9a5.59,5.59,0,0,1,0,4.3A5.6,5.6,0,0,1,21.66,15a5.2,5.2,0,0,1-1.75,1.18,5.47,5.47,0,0,1-4.3,0A5.34,5.34,0,0,1,13.85,15a5.75,5.75,0,0,1-1.18-1.75,5.59,5.59,0,0,1,0-4.3Z"/><path class="cls-1" d="M17.76,12.08a.91.91,0,0,0,.41-.09l2.18,2.17a.35.35,0,0,0,.27.11.34.34,0,0,0,.26-.11.37.37,0,0,0,0-.53L18.7,11.46a1,1,0,0,0,.09-.41,1,1,0,0,0-.66-1v-3a.36.36,0,0,0-.37-.37.37.37,0,0,0-.38.37v3a1,1,0,0,0,.38,2Z"/></g></g></svg>