<svg xmlns="http://www.w3.org/2000/svg" viewBox="0 0 99.14 97.78"><defs><style>.cls-1{fill:#119f52;}</style></defs><g id="Capa_2" data-name="Capa 2"><g id="arte"><path class="cls-1" d="M40.5,51.79a6.41,6.41,0,0,0-5,3.21c-.5,1-.93,2-1.4,3s1,1.77,1.4.82S36.33,57,36.77,56a4.93,4.93,0,0,1,4.16-2.68c1-.15.59-1.71-.43-1.57Z"/><path class="cls-1" d="M32.33,60.32c.88-1.9,1.69-3.87,2.67-5.72,1.79-3.33,5.6-3.42,8.9-3.8A3.35,3.35,0,0,0,47,48.69c.54-1.29,1.34-2.56.76-4A15,15,0,0,0,45.5,41.6a8.94,8.94,0,0,1-2.29-5.08,11.12,11.12,0,0,1,1.13-4.33l1.37-3.62c.55-1.47-1.8-2.1-2.35-.65-.74,2-1.61,3.94-2.23,6-1.25,4,1,7.32,3.34,10.34a6.36,6.36,0,0,1,1,1.3c.16.44-.14.88-.31,1.3s-.37,1.24-.76,1.46a4.28,4.28,0,0,1-1.39.18c-3.45.39-6.93.77-9.29,3.67-1.59,2-2.45,4.68-3.51,7-.66,1.41,1.44,2.64,2.1,1.23Z"/><path class="cls-1" d="M58.64,46a6.41,6.41,0,0,0,5-3.21c.49-1,.91-2,1.37-3s-1-1.76-1.4-.81-.84,1.82-1.27,2.72a5,5,0,0,1-4.16,2.68c-1,.14-.59,1.71.43,1.57Z"/><path class="cls-1" d="M55.77,69.86c.75-2,1.62-3.94,2.24-6,1.25-4-1-7.32-3.35-10.34a6.23,6.23,0,0,1-1-1.3c-.16-.44.13-.89.31-1.3s.36-1.24.76-1.46a4.25,4.25,0,0,1,1.39-.18c3.45-.39,6.93-.77,9.28-3.68,1.6-2,2.46-4.68,3.52-7,.66-1.41-1.44-2.65-2.1-1.23-.89,1.9-1.69,3.87-2.68,5.72-1.78,3.33-5.59,3.42-8.89,3.8a3.34,3.34,0,0,0-3.11,2.11c-.54,1.28-1.34,2.55-.77,4a15.41,15.41,0,0,0,2.28,3.12,8.84,8.84,0,0,1,2.28,5.08,11.17,11.17,0,0,1-1.13,4.33c-.45,1.21-.91,2.41-1.36,3.62-.56,1.47,1.79,2.1,2.34.65Z"/><path class="cls-1" d="M70.16,38.36A2.35,2.35,0,0,0,73,35.13a3,3,0,0,0-1.77-1.36l-5.41-2.28-17-7.15c-1.41-.59-2.81-1.31-4.26-1.8a2.36,2.36,0,0,0-3.12,1.72A2.43,2.43,0,0,0,43.18,27c4.36,1.91,8.77,3.69,13.16,5.54l13.82,5.83"/><path class="cls-1" d="M54.6,75.26A2.35,2.35,0,0,0,57.46,72a3,3,0,0,0-1.78-1.36l-5.41-2.29-17-7.14c-1.4-.6-2.81-1.31-4.26-1.8a2.36,2.36,0,0,0-3.12,1.71,2.45,2.45,0,0,0,1.69,2.73c4.36,1.92,8.78,3.7,13.16,5.55L54.6,75.26"/><path class="cls-1" d="M52.23,71.67l2.45,1"/><path class="cls-1" d="M47.75,9.09A39.74,39.74,0,0,0,9.11,49.92a2,2,0,0,0,2,1.95l10-.29-1.38-3.32L5.93,62.79l-2,2.13,3.25.86A45,45,0,0,1,56.83,4.56a45.58,45.58,0,0,1,25.29,14c1.7,1.85,4.45-.91,2.75-2.75A49.33,49.33,0,0,0,34.44,2.13a48.84,48.84,0,0,0-31,64.68,2,2,0,0,0,3.25.86L20.42,53.13l2-2.12a2,2,0,0,0-1.38-3.32l-10,.28,1.94,2c-.35-14.79,8.54-28.86,22.4-34.36A36.88,36.88,0,0,1,47.75,13c2.5-.08,2.51-4,0-3.89Z"/><path class="cls-1" d="M51.38,88.69A39.74,39.74,0,0,0,90,47.86a2,2,0,0,0-2-2l-10,.29c.46,1.11.92,2.21,1.37,3.32Q86.35,42.26,93.21,35l2-2.12L92,32A45,45,0,0,1,42.31,93.22,45.56,45.56,0,0,1,17,79.2c-1.7-1.84-4.45.91-2.75,2.76A49.34,49.34,0,0,0,64.7,95.65,48.84,48.84,0,0,0,95.72,31a2,2,0,0,0-3.26-.86L78.72,44.64l-2,2.13a2,2,0,0,0,1.38,3.32l10-.29-2-1.94c.36,14.79-8.53,28.86-22.4,34.36A36.78,36.78,0,0,1,51.38,84.8c-2.49.08-2.5,4,0,3.89Z"/></g></g></svg>